# xmcd CD database file generated by Grip 3.0.5
# 
# Track frame offsets:
#       150
#       13012
#       23175
#       37177
#       56597
#       69040
#       87102
#       101395
#       118715
#       134750
# 
# Disc length: 2021 seconds
# 
# Revision: 2
# Processed by: cddbd v1.4PL0 Copyright (c) Steve Scherf et al.
# Submitted via: Grip 3.0.5
# 
DISCID=8007e30a
DTITLE=Lyle Lovett - Lyle Lovett
DYEAR=1900
DGENRE=Country
TTITLE0=Cowboy Man
TTITLE1=God Will
TTITLE2=Farther Down The Line
TTITLE3=THis Old Porch
TTITLE4=Why I Don't Know
TTITLE5=If I Were The Man You Wanted
TTITLE6=You Can't Resist It
TTITLE7=The Waltzing Fool
TTITLE8=An Acceptable Level Of Ecstasy
TTITLE9=Closing Time
EXTD=
EXTT0=
EXTT1=
EXTT2=
EXTT3=
EXTT4=
EXTT5=
EXTT6=
EXTT7=
EXTT8=
EXTT9=
PLAYORDER=
